<svg id="Layer_1" data-name="Layer 1" xmlns="http://www.w3.org/2000/svg" xmlns:xlink="http://www.w3.org/1999/xlink" viewBox="0 0 100 100"><defs><style>.cls-1{fill:url(#linear-gradient);}.cls-2{fill:url(#linear-gradient-3);}.cls-3{fill:url(#linear-gradient-5);}.cls-4{fill:url(#linear-gradient-7);}.cls-5{fill:url(#linear-gradient-9);}.cls-6{fill:url(#linear-gradient-11);}.cls-7{fill:url(#linear-gradient-12);}.cls-8{fill:url(#linear-gradient-14);}.cls-9{fill:url(#linear-gradient-16);}.cls-10{fill:url(#linear-gradient-18);}.cls-11{fill:url(#linear-gradient-19);}.cls-12{fill:url(#linear-gradient-21);}.cls-13{fill:url(#linear-gradient-23);}</style><linearGradient id="linear-gradient" x1="79.64" y1="8282.55" x2="24.32" y2="8194.89" gradientTransform="matrix(1, 0, 0, -1, 0, 8282)" gradientUnits="userSpaceOnUse"><stop offset="0" stop-color="#29abe2"/><stop offset="1" stop-color="#1d30b8"/></linearGradient><linearGradient id="linear-gradient-3" x1="114.8" y1="8260.36" x2="59.48" y2="8172.7" xlink:href="#linear-gradient"/><linearGradient id="linear-gradient-5" x1="116.3" y1="8259.41" x2="60.98" y2="8171.75" xlink:href="#linear-gradient"/><linearGradient id="linear-gradient-7" x1="98.38" y1="8270.72" x2="43.06" y2="8183.06" gradientTransform="matrix(0.87, 0.5, 0.5, -0.87, -4115.13, 7132.37)" xlink:href="#linear-gradient"/><linearGradient id="linear-gradient-9" x1="118.02" y1="8258.32" x2="62.7" y2="8170.66" gradientTransform="matrix(0.5, 0.87, 0.87, -0.5, -7066.43, 4100.95)" xlink:href="#linear-gradient"/><linearGradient id="linear-gradient-11" x1="81.24" y1="8281.53" x2="25.92" y2="8193.87" xlink:href="#linear-gradient"/><linearGradient id="linear-gradient-12" x1="82.85" y1="8280.51" x2="27.53" y2="8192.86" xlink:href="#linear-gradient"/><linearGradient id="linear-gradient-14" x1="47.69" y1="8302.71" x2="-7.63" y2="8215.05" xlink:href="#linear-gradient"/><linearGradient id="linear-gradient-16" x1="46.19" y1="8303.66" x2="-9.13" y2="8216" xlink:href="#linear-gradient"/><linearGradient id="linear-gradient-18" x1="100.89" y1="8269.14" x2="45.57" y2="8181.48" xlink:href="#linear-gradient"/><linearGradient id="linear-gradient-19" x1="64.1" y1="8292.35" x2="8.79" y2="8204.69" gradientTransform="matrix(0.87, 0.5, 0.5, -0.87, -4103.47, 7175.89)" xlink:href="#linear-gradient"/><linearGradient id="linear-gradient-21" x1="44.47" y1="8304.74" x2="-10.85" y2="8217.08" gradientTransform="matrix(0.5, 0.87, 0.87, -0.5, -7141.81, 4144.47)" xlink:href="#linear-gradient"/><linearGradient id="linear-gradient-23" x1="61.6" y1="8293.93" x2="6.28" y2="8206.27" xlink:href="#linear-gradient"/></defs><path d="M41.47,57.23a3.28,3.28,0,0,0-1.25-2.73,16.77,16.77,0,0,0-4.52-2,32.55,32.55,0,0,1-5.16-2.08q-5.19-2.81-5.19-7.55a7.38,7.38,0,0,1,1.39-4.4,9.1,9.1,0,0,1,4-3,15,15,0,0,1,5.84-1.09,13.69,13.69,0,0,1,5.81,1.19,9.26,9.26,0,0,1,4,3.33,8.82,8.82,0,0,1,1.41,4.89H41.49a4.14,4.14,0,0,0-1.32-3.25,5.44,5.44,0,0,0-3.7-1.16,5.72,5.72,0,0,0-3.57,1,3,3,0,0,0-1.28,2.56,2.91,2.91,0,0,0,1.5,2.49,16.65,16.65,0,0,0,4.4,1.88q5.35,1.62,7.8,4a8,8,0,0,1,2.44,5.94,7.34,7.34,0,0,1-3,6.2,12.94,12.94,0,0,1-8,2.25,15.43,15.43,0,0,1-6.4-1.29A10.19,10.19,0,0,1,26,60.89a9,9,0,0,1-1.52-5.19h6.3c0,3.36,2,5,6,5a5.89,5.89,0,0,0,3.49-.91A3,3,0,0,0,41.47,57.23Z"/><path d="M58.53,54.49V65.22H52.26V34.78H64.13a13.65,13.65,0,0,1,6,1.26,9.25,9.25,0,0,1,4,3.56,10.12,10.12,0,0,1,1.4,5.26,8.74,8.74,0,0,1-3.07,7q-3,2.63-8.47,2.63Zm0-5.08h5.6a5.51,5.51,0,0,0,3.8-1.17,4.27,4.27,0,0,0,1.3-3.34,5.13,5.13,0,0,0-1.31-3.62,5,5,0,0,0-3.64-1.42H58.53Z"/><path class="cls-1" d="M67.74,4.75V8.82a10.49,10.49,0,0,1,9,5.22l3.52-2A14.55,14.55,0,0,0,67.74,4.75Z"/><path class="cls-1" d="M67.74,4.75V8.82a10.49,10.49,0,0,1,9,5.22l3.52-2A14.55,14.55,0,0,0,67.74,4.75Z"/><path class="cls-2" d="M98.05,42.75l-3.52,2a10.46,10.46,0,0,1,0,10.44l3.52,2A14.54,14.54,0,0,0,98.05,42.75Z"/><path class="cls-2" d="M98.05,42.75l-3.52,2a10.46,10.46,0,0,1,0,10.44l3.52,2A14.54,14.54,0,0,0,98.05,42.75Z"/><path class="cls-3" d="M67.74,91.18v4.07A14.56,14.56,0,0,0,80.3,88l-3.52-2A10.49,10.49,0,0,1,67.74,91.18Z"/><path class="cls-3" d="M67.74,91.18v4.07A14.56,14.56,0,0,0,80.3,88l-3.52-2A10.49,10.49,0,0,1,67.74,91.18Z"/><rect class="cls-4" x="85.65" y="18.07" width="4.07" height="20.34" transform="translate(-2.37 47.62) rotate(-30)"/><rect class="cls-4" x="85.65" y="18.07" width="4.07" height="20.34" transform="translate(-2.37 47.62) rotate(-30)"/><rect class="cls-5" x="77.51" y="69.73" width="20.34" height="4.07" transform="translate(-18.31 111.81) rotate(-60)"/><rect class="cls-5" x="77.51" y="69.73" width="20.34" height="4.07" transform="translate(-18.31 111.81) rotate(-60)"/><path class="cls-6" d="M89.49,43.9,75,18.84a12.26,12.26,0,0,0-10.57-6.1H35.52A12.25,12.25,0,0,0,25,18.84L10.49,43.9a12.2,12.2,0,0,0,0,12.2L25,81.16a12.24,12.24,0,0,0,10.57,6.1h28.9A12.27,12.27,0,0,0,75,81.16L89.49,56.1A12.25,12.25,0,0,0,89.49,43.9ZM86,54.07,71.5,79.13a8.2,8.2,0,0,1-7,4.06h-29a8.17,8.17,0,0,1-7-4.06L14,54.07a8.16,8.16,0,0,1,0-8.14L28.48,20.87a8.17,8.17,0,0,1,7-4.06h29a8.2,8.2,0,0,1,7,4.06L86,45.93A8.16,8.16,0,0,1,86,54.07Z"/><path class="cls-7" d="M32.24,95.25V91.18a10.46,10.46,0,0,1-9-5.22l-3.52,2A14.53,14.53,0,0,0,32.24,95.25Z"/><path class="cls-7" d="M32.24,95.25V91.18a10.46,10.46,0,0,1-9-5.22l-3.52,2A14.53,14.53,0,0,0,32.24,95.25Z"/><path class="cls-8" d="M1.93,57.25l3.52-2a10.42,10.42,0,0,1,0-10.44l-3.52-2A14.49,14.49,0,0,0,1.93,57.25Z"/><path class="cls-8" d="M1.93,57.25l3.52-2a10.42,10.42,0,0,1,0-10.44l-3.52-2A14.49,14.49,0,0,0,1.93,57.25Z"/><path class="cls-9" d="M32.24,8.82V4.75A14.54,14.54,0,0,0,19.68,12l3.52,2A10.46,10.46,0,0,1,32.24,8.82Z"/><path class="cls-9" d="M32.24,8.82V4.75A14.54,14.54,0,0,0,19.68,12l3.52,2A10.46,10.46,0,0,1,32.24,8.82Z"/><rect class="cls-10" x="39.82" y="91.49" width="20.34" height="4.07"/><rect class="cls-11" x="10.26" y="61.59" width="4.07" height="20.34" transform="translate(-34.23 15.76) rotate(-30)"/><rect class="cls-11" x="10.26" y="61.59" width="4.07" height="20.34" transform="translate(-34.23 15.76) rotate(-30)"/><rect class="cls-12" x="2.13" y="26.21" width="20.34" height="4.07" transform="translate(-18.31 24.77) rotate(-60)"/><rect class="cls-12" x="2.13" y="26.21" width="20.34" height="4.07" transform="translate(-18.31 24.77) rotate(-60)"/><rect class="cls-13" x="39.82" y="4.44" width="20.34" height="4.07"/></svg>